<svg id="Layer_1" data-name="Layer 1" xmlns="http://www.w3.org/2000/svg" viewBox="0 0 600 600"><path d="M65.32,545.09q-5.44-5.49-5.44-15.52V501.9h3.38v27.67q0,8.65,4.59,13.35t12.94,4.7a19.24,19.24,0,0,0,9.29-2.27A16.82,16.82,0,0,0,96.73,539a18.1,18.1,0,0,0,2.43-9.39V501.9h3.38v47.52H99.16v-8.87a18.7,18.7,0,0,1-7.29,7.23,21.82,21.82,0,0,1-11.08,2.8Q70.76,550.58,65.32,545.09Z" style="fill:#7ccc27;stroke:#7ccc27;stroke-miterlimit:10;stroke-width:6px"/><path d="M115.84,501.9h3.38v10.56a18.25,18.25,0,0,1,7.92-8.5,24.3,24.3,0,0,1,12.36-3.22q8.76,0,13.88,5.54t5.12,15.47v27.67h-3.37V521.75q0-8.55-4.18-13.3t-11.66-4.76a20.84,20.84,0,0,0-10.09,2.49,19,19,0,0,0-7.28,6.81,18.16,18.16,0,0,0-2.7,9.82v26.61h-3.38Z" style="fill:#7ccc27;stroke:#7ccc27;stroke-miterlimit:10;stroke-width:6px"/><path d="M190.29,546.09a39.78,39.78,0,0,1-14.73-15,42.64,42.64,0,0,1-5.44-21.49,40.36,40.36,0,0,1,5.65-21,41.65,41.65,0,0,1,15.1-15A39.4,39.4,0,0,1,211,468.11a41.67,41.67,0,0,1,11.72,1.32,50.45,50.45,0,0,1,10,4.59v3.91a41.07,41.07,0,0,0-10-5.23,36.7,36.7,0,0,0-11.46-1.53,35.52,35.52,0,0,0-19.06,5.33,39.46,39.46,0,0,0-18.64,33.42,38.07,38.07,0,0,0,5.07,19.22,39.13,39.13,0,0,0,13.47,14.1,33.66,33.66,0,0,0,18.11,5.23,36.76,36.76,0,0,0,22.49-6.76v3.91a40.2,40.2,0,0,1-10.4,4.48,45.17,45.17,0,0,1-11.67,1.43A39.57,39.57,0,0,1,190.29,546.09Z" style="fill:#ff4b1e;stroke:#ff4b1e;stroke-miterlimit:10;stroke-width:3px"/><path d="M246,470.22h3.38v41.5a18,18,0,0,1,7.55-7.87,21.28,21.28,0,0,1,10.82-3.11q10,0,15.47,5.49t5.44,15.52v27.67h-3.38V521.75q0-8.65-4.59-13.36t-12.94-4.7a18.7,18.7,0,0,0-9.29,2.38,17.5,17.5,0,0,0-6.65,6.55,17.8,17.8,0,0,0-2.43,9.13v27.67H246Z" style="fill:#ff4b1e;stroke:#ff4b1e;stroke-miterlimit:10;stroke-width:3px"/><path d="M311.83,547.2a25.07,25.07,0,0,1-9.19-9.13,24.47,24.47,0,0,1,0-24.82,25,25,0,0,1,9.19-9.13,24.48,24.48,0,0,1,12.56-3.38,25,25,0,0,1,13,3.64,19.9,19.9,0,0,1,8.55,9.45V501.9h3.38v47.52h-3.38V537.59a22,22,0,0,1-8.81,9.45,24.84,24.84,0,0,1-25.29.16Zm23.55-2.59a22.37,22.37,0,0,0,7.86-8,21.73,21.73,0,0,0-.05-21.81,22.63,22.63,0,0,0-7.92-8.08,20.7,20.7,0,0,0-21.6.06,23.38,23.38,0,0,0-8,8.13,20.89,20.89,0,0,0-3,10.87,20.65,20.65,0,0,0,3,10.83,22.91,22.91,0,0,0,8.08,8,20.89,20.89,0,0,0,10.87,3A20.4,20.4,0,0,0,335.38,544.61Z" style="fill:#ff4b1e;stroke:#ff4b1e;stroke-miterlimit:10;stroke-width:3px"/><path d="M364.15,490a3.51,3.51,0,0,1-1.11-2.64,3.39,3.39,0,0,1,1.11-2.54,3.71,3.71,0,0,1,5.17,0,3.39,3.39,0,0,1,1.11,2.54,3.51,3.51,0,0,1-1.11,2.64,3.71,3.71,0,0,1-5.17,0Zm.9,11.93h3.37v47.52h-3.37Z" style="fill:#ff4b1e;stroke:#ff4b1e;stroke-miterlimit:10;stroke-width:3px"/><path d="M384.16,501.9h3.38v10.56a18.15,18.15,0,0,1,7.92-8.5,24.29,24.29,0,0,1,12.35-3.22q8.76,0,13.89,5.54t5.12,15.47v27.67h-3.38V521.75q0-8.55-4.17-13.3t-11.67-4.76a20.8,20.8,0,0,0-10.08,2.49,19,19,0,0,0-7.29,6.81,18.15,18.15,0,0,0-2.69,9.82v26.61h-3.38Z" style="fill:#ff4b1e;stroke:#ff4b1e;stroke-miterlimit:10;stroke-width:3px"/><path d="M473.7,544.88a24.23,24.23,0,0,0,8.24-7.82v5.39a24.34,24.34,0,0,1-8.55,6.28,27.09,27.09,0,0,1-10.56,1.95,23.4,23.4,0,0,1-12.31-3.48,26.35,26.35,0,0,1-9.18-9.29,23.87,23.87,0,0,1-3.43-12.36,24.34,24.34,0,0,1,3.37-12.72,23.75,23.75,0,0,1,9.24-8.82,27,27,0,0,1,13.05-3.17q11,0,18.69,8.66L449.1,542.24a26.34,26.34,0,0,0,6.76,4.17,19.59,19.59,0,0,0,7.39,1.32A20.67,20.67,0,0,0,473.7,544.88Zm-26.61-4.65L478,509.5a24,24,0,0,0-6.76-4.38,20.82,20.82,0,0,0-7.81-1.32A23.11,23.11,0,0,0,452,506.6a20.56,20.56,0,0,0-7.86,7.65,22.36,22.36,0,0,0,2.95,26Z" style="fill:#ff4b1e;stroke:#ff4b1e;stroke-miterlimit:10;stroke-width:3px"/><path d="M502.58,547.2a25.31,25.31,0,0,1-9.13-9.08,24.66,24.66,0,0,1,0-24.92,25.31,25.31,0,0,1,9.13-9.08,24.84,24.84,0,0,1,25.29.16,22,22,0,0,1,8.87,9.23V470.22h3.38v79.2h-3.38V537.91a25.41,25.41,0,0,1-21.54,12.67A24.5,24.5,0,0,1,502.58,547.2Zm23.34-2.59a23,23,0,0,0,8-8,20.65,20.65,0,0,0,3-10.83,20.89,20.89,0,0,0-3-10.87,23.3,23.3,0,0,0-8-8.13,20.7,20.7,0,0,0-21.6-.06,22.6,22.6,0,0,0-7.91,8.08,21.16,21.16,0,0,0-3,10.88,21.51,21.51,0,0,0,2.9,10.93,22.22,22.22,0,0,0,7.92,8,21,21,0,0,0,21.65,0Z" style="fill:#ff4b1e;stroke:#ff4b1e;stroke-miterlimit:10;stroke-width:3px"/><path d="M400.34,240.11a279,279,0,0,0-23.22,35.18c-9,16.2-12.7,28.14-15.15,31.77a118.29,118.29,0,1,1-196.14-132.3A120.32,120.32,0,0,1,178,159.57a16.47,16.47,0,0,0-21.41-19.94c-2.5,2.66-5.14,5.66-7.82,9q-3.77,4.7-7.19,9.77a147.55,147.55,0,1,0,269.74,76.07Z" style="fill:#ff4b1e"/><path d="M308.68,151.26l93.72-20.62a7.46,7.46,0,0,1,9.06,7.29v41.24a7.47,7.47,0,0,1-9.07,7.29l-93.71-20.63C300.87,164.12,300.87,153,308.68,151.26Z" style="fill:#7ccc27"/><path d="M286.23,158,216,92.3a7.66,7.66,0,0,1,1.4-12.23l48.42-28a7.67,7.67,0,0,1,11.3,4.9l21.8,93.67A7.66,7.66,0,0,1,286.23,158Z" style="fill:#7ccc27"/><path d="M290.11,162.46l27.3-108.19a7.66,7.66,0,0,1,11.38-4.7l55.42,33.3a7.66,7.66,0,0,1,1.19,12.25L302.69,170A7.67,7.67,0,0,1,290.11,162.46Z" style="fill:#7ccc27;stroke:#fff;stroke-miterlimit:10;stroke-width:6px"/><path d="M438.72,345.88l-15.28,8.82A9.49,9.49,0,0,0,420,367.65l30.72,53.21a9.48,9.48,0,0,0,12.95,3.46l15.28-8.82a9.47,9.47,0,0,0,3.47-12.94l-30.72-53.21A9.48,9.48,0,0,0,438.72,345.88Zm30.83,49.8a9.47,9.47,0,0,1-3.47,12.95l-2,1.14a9.46,9.46,0,0,1-12.94-3.47l-18.35-31.78a9.46,9.46,0,0,1,3.47-12.94l2-1.15a9.48,9.48,0,0,1,12.94,3.47Z" style="fill:#ff4b1e"/><path d="M445.2,244.25l-19.12-11a18.84,18.84,0,0,0-25.74,6.89L319.22,380.62a18.83,18.83,0,0,0,6.9,25.74l19.12,11A18.84,18.84,0,0,0,371,410.5L452.1,270A18.85,18.85,0,0,0,445.2,244.25ZM409.26,328.2l-9.66,16.73a12.2,12.2,0,0,1-16.67,4.47l-.94-.55a12.19,12.19,0,0,1-4.47-16.66l9.66-16.74A12.21,12.21,0,0,1,403.85,311l.94.54A12.2,12.2,0,0,1,409.26,328.2Z" style="fill:#ff4b1e"/><path d="M391.14,325.57l-6,16.58a9.48,9.48,0,0,0,5.66,12.15l57.73,21a9.48,9.48,0,0,0,12.15-5.66l6-16.59A9.47,9.47,0,0,0,461,340.92l-57.73-21A9.48,9.48,0,0,0,391.14,325.57Zm55.63,18.33a9.48,9.48,0,0,1,5.66,12.15l-.78,2.15a9.47,9.47,0,0,1-12.14,5.66L405,351.31a9.47,9.47,0,0,1-5.66-12.14l.78-2.15a9.47,9.47,0,0,1,12.14-5.67Z" style="fill:#ff4b1e"/></svg>